<svg xmlns="http://www.w3.org/2000/svg" width="1024" height="1024" viewBox="0 0 1024 1024">
<metadata>Auto-vectorized from raster using LAB quantile banding + contour tracing.</metadata>
<path d="M 827.00 304.00 L 674.00 256.00 L 622.00 305.00 L 505.00 359.00 L 476.00 362.00 L 440.00 336.00 L 397.00 353.00 L 382.00 386.00 L 372.00 488.00 L 328.00 588.00 L 298.00 735.00 L 318.00 878.00 L 342.00 921.00 L 366.00 928.00 L 397.00 915.00 L 499.00 775.00 L 560.00 752.00 L 598.00 721.00 L 612.00 671.00 L 573.00 617.00 L 619.00 492.00 L 681.00 422.00 L 818.00 381.00 L 841.00 340.00 Z M 827.00 317.00 L 802.00 371.00 L 677.00 401.00 L 636.00 437.00 L 587.00 513.00 L 552.00 641.00 L 601.00 671.00 L 585.00 715.00 L 479.00 768.00 L 397.00 892.00 L 351.00 909.00 L 315.00 792.00 L 317.00 695.00 L 384.00 514.00 L 416.00 361.00 L 437.00 343.00 L 446.00 377.00 L 498.00 385.00 L 634.00 323.00 L 681.00 268.00 L 694.00 288.00 Z" fill="rgb(221,253,250)" fill-rule="evenodd"/>
<path d="M 467.00 750.00 L 450.00 777.00 L 444.00 781.00 L 443.00 779.00 L 446.00 774.00 L 444.00 773.00 L 441.00 780.00 L 443.00 782.00 L 436.00 796.00 L 433.00 799.00 L 430.00 795.00 L 425.00 802.00 L 423.00 801.00 L 421.00 803.00 L 421.00 813.00 L 408.00 829.00 L 411.00 831.00 L 398.00 856.00 L 395.00 855.00 L 392.00 859.00 L 389.00 869.00 L 395.00 857.00 L 399.00 857.00 L 412.00 836.00 L 442.00 796.00 L 467.00 753.00 Z" fill="rgb(145,245,242)" fill-rule="evenodd"/>
<path d="M 522.00 744.00 L 518.00 746.00 L 490.00 741.00 L 476.00 747.00 L 459.00 778.00 L 439.00 803.00 L 409.00 850.00 L 409.00 864.00 L 417.00 859.00 L 413.00 858.00 L 423.00 850.00 L 423.00 844.00 L 427.00 844.00 L 428.00 839.00 L 425.00 835.00 L 432.00 830.00 L 430.00 824.00 L 439.00 821.00 L 438.00 813.00 L 443.00 812.00 L 446.00 808.00 L 444.00 806.00 L 452.00 801.00 L 452.00 796.00 L 460.00 791.00 L 459.00 788.00 L 463.00 784.00 L 468.00 783.00 L 469.00 776.00 L 476.00 771.00 L 476.00 767.00 L 480.00 764.00 L 482.00 766.00 L 484.00 759.00 L 484.00 762.00 L 487.00 762.00 L 486.00 759.00 L 490.00 759.00 L 492.00 754.00 L 500.00 753.00 L 500.00 749.00 L 504.00 750.00 L 512.00 745.00 L 515.00 749.00 Z" fill="rgb(145,245,242)" fill-rule="evenodd"/>
<path d="M 566.00 523.00 L 560.00 534.00 L 559.00 542.00 L 542.00 587.00 L 530.00 628.00 L 520.00 652.00 L 521.00 653.00 L 531.00 633.00 L 545.00 594.00 L 567.00 524.00 Z" fill="rgb(145,245,242)" fill-rule="evenodd"/>
<path d="M 400.00 510.00 L 371.00 570.00 L 344.00 655.00 L 331.00 752.00 L 337.00 806.00 L 336.00 783.00 L 348.00 790.00 L 359.00 727.00 L 348.00 729.00 L 344.00 711.00 L 338.00 752.00 L 338.00 715.00 L 352.00 680.00 L 354.00 720.00 L 366.00 681.00 L 372.00 687.00 L 381.00 682.00 L 373.00 671.00 L 389.00 625.00 L 385.00 600.00 L 397.00 597.00 L 404.00 555.00 L 412.00 555.00 L 413.00 533.00 L 377.00 573.00 L 374.00 589.00 L 385.00 598.00 L 363.00 632.00 L 369.00 584.00 Z" fill="rgb(145,245,242)" fill-rule="evenodd"/>
<path d="M 633.00 416.00 L 613.00 433.00 L 589.00 464.00 L 587.00 461.00 L 586.00 462.00 L 588.00 465.00 L 582.00 472.00 L 578.00 484.00 L 571.00 491.00 L 572.00 494.00 L 566.00 505.00 L 562.00 519.00 L 558.00 525.00 L 558.00 529.00 L 565.00 514.00 L 567.00 519.00 L 569.00 519.00 L 581.00 488.00 L 596.00 463.00 L 634.00 417.00 Z" fill="rgb(145,245,242)" fill-rule="evenodd"/>
<path d="M 407.00 380.00 L 398.00 406.00 L 398.00 460.00 L 384.00 509.00 L 388.00 514.00 L 379.00 519.00 L 378.00 538.00 L 372.00 538.00 L 363.00 565.00 L 355.00 568.00 L 358.00 575.00 L 351.00 578.00 L 354.00 589.00 L 342.00 606.00 L 345.00 627.00 L 341.00 621.00 L 319.00 698.00 L 324.00 702.00 L 317.00 769.00 L 322.00 795.00 L 341.00 636.00 L 368.00 556.00 L 404.00 489.00 Z" fill="rgb(145,245,242)" fill-rule="evenodd"/>
<path d="M 758.00 380.00 L 693.00 378.00 L 621.00 440.00 L 574.00 522.00 L 527.00 662.00 L 553.00 670.00 L 576.00 667.00 L 558.00 664.00 L 575.00 662.00 L 548.00 636.00 L 550.00 613.00 L 556.00 612.00 L 550.00 600.00 L 553.00 605.00 L 563.00 593.00 L 564.00 563.00 L 571.00 569.00 L 582.00 508.00 L 585.00 515.00 L 596.00 503.00 L 596.00 483.00 L 605.00 486.00 L 600.00 481.00 L 629.00 449.00 L 628.00 438.00 L 641.00 435.00 L 646.00 421.00 L 650.00 425.00 L 677.00 398.00 L 680.00 404.00 L 706.00 387.00 L 747.00 389.00 Z" fill="rgb(145,245,242)" fill-rule="evenodd"/>
<path d="M 430.00 356.00 L 417.00 378.00 L 410.00 410.00 L 410.00 495.00 L 413.00 480.00 L 413.00 454.00 L 417.00 444.00 L 417.00 430.00 L 419.00 428.00 L 416.00 422.00 L 418.00 413.00 L 414.00 410.00 L 420.00 382.00 L 422.00 380.00 L 421.00 378.00 L 425.00 374.00 L 424.00 371.00 L 430.00 360.00 Z" fill="rgb(145,245,242)" fill-rule="evenodd"/>
<path d="M 586.00 347.00 L 576.00 346.00 L 569.00 350.00 L 559.00 347.00 L 559.00 351.00 L 551.00 356.00 L 549.00 361.00 L 541.00 362.00 L 537.00 367.00 L 534.00 365.00 L 533.00 369.00 L 517.00 373.00 L 517.00 378.00 L 506.00 381.00 L 502.00 387.00 L 497.00 385.00 L 497.00 389.00 L 493.00 387.00 L 480.00 388.00 L 475.00 385.00 L 470.00 389.00 L 469.00 384.00 L 466.00 386.00 L 462.00 382.00 L 463.00 379.00 L 449.00 376.00 L 446.00 382.00 L 451.00 400.00 L 462.00 415.00 L 470.00 416.00 L 537.00 369.00 Z" fill="rgb(145,245,242)" fill-rule="evenodd"/>
<path d="M 670.00 344.00 L 633.00 343.00 L 571.00 359.00 L 539.00 374.00 L 478.00 420.00 L 492.00 416.00 L 522.00 391.00 L 525.00 393.00 L 526.00 390.00 L 576.00 363.00 L 609.00 353.00 L 614.00 355.00 L 626.00 349.00 Z" fill="rgb(145,245,242)" fill-rule="evenodd"/>
<path d="M 663.00 293.00 L 662.00 292.00 L 660.00 294.00 L 658.00 300.00 L 653.00 302.00 L 653.00 306.00 L 649.00 309.00 L 651.00 311.00 L 646.00 313.00 L 636.00 322.00 L 634.00 327.00 L 630.00 324.00 L 627.00 331.00 L 622.00 329.00 L 619.00 333.00 L 616.00 333.00 L 614.00 330.00 L 612.00 335.00 L 610.00 334.00 L 611.00 331.00 L 608.00 330.00 L 606.00 336.00 L 603.00 332.00 L 600.00 336.00 L 598.00 334.00 L 597.00 335.00 L 600.00 336.00 L 599.00 338.00 L 594.00 335.00 L 593.00 339.00 L 590.00 337.00 L 588.00 339.00 L 583.00 338.00 L 581.00 343.00 L 583.00 344.00 L 583.00 340.00 L 585.00 339.00 L 594.00 346.00 L 607.00 341.00 L 615.00 341.00 L 617.00 339.00 L 622.00 340.00 L 624.00 338.00 L 631.00 339.00 L 649.00 336.00 L 665.00 336.00 L 660.00 314.00 L 660.00 301.00 Z" fill="rgb(145,245,242)" fill-rule="evenodd"/>
<path d="M 699.00 283.00 L 703.00 286.00 L 701.00 293.00 L 720.00 301.00 L 728.00 314.00 L 738.00 311.00 L 752.00 311.00 L 759.00 313.00 L 761.00 311.00 L 767.00 310.00 L 765.00 307.00 L 754.00 307.00 L 752.00 304.00 L 751.00 305.00 L 747.00 302.00 L 744.00 303.00 L 742.00 300.00 L 739.00 302.00 L 739.00 300.00 L 736.00 298.00 L 733.00 299.00 L 730.00 297.00 L 726.00 299.00 L 721.00 295.00 L 721.00 293.00 L 719.00 296.00 L 720.00 297.00 L 718.00 298.00 L 713.00 295.00 L 718.00 293.00 L 714.00 286.00 L 711.00 287.00 L 709.00 284.00 L 707.00 286.00 L 704.00 284.00 L 704.00 281.00 Z" fill="rgb(145,245,242)" fill-rule="evenodd"/>
<path d="M 373.00 844.00 L 368.00 849.00 L 364.00 849.00 L 362.00 847.00 L 361.00 848.00 L 360.00 866.00 L 357.00 869.00 L 359.00 871.00 L 361.00 885.00 L 365.00 891.00 L 371.00 884.00 L 369.00 877.00 L 373.00 867.00 L 375.00 849.00 L 372.00 848.00 L 374.00 845.00 Z" fill="rgb(73,194,202)" fill-rule="evenodd"/>
<path d="M 508.00 725.00 L 491.00 725.00 L 473.00 730.00 L 463.00 739.00 L 451.00 763.00 L 447.00 765.00 L 447.00 758.00 L 433.00 772.00 L 428.00 789.00 L 415.00 796.00 L 410.00 803.00 L 412.00 807.00 L 404.00 820.00 L 403.00 832.00 L 396.00 838.00 L 390.00 861.00 L 399.00 849.00 L 400.00 842.00 L 406.00 839.00 L 408.00 835.00 L 405.00 833.00 L 409.00 824.00 L 416.00 818.00 L 415.00 814.00 L 420.00 808.00 L 421.00 801.00 L 436.00 790.00 L 445.00 771.00 L 446.00 777.00 L 449.00 777.00 L 464.00 752.00 L 473.00 745.00 L 466.00 744.00 L 478.00 735.00 L 490.00 734.00 L 490.00 730.00 L 502.00 729.00 Z" fill="rgb(73,194,202)" fill-rule="evenodd"/>
<path d="M 539.00 704.00 L 536.00 703.00 L 538.00 700.00 L 535.00 696.00 L 531.00 698.00 L 527.00 696.00 L 515.00 699.00 L 514.00 706.00 L 513.00 705.00 L 511.00 707.00 L 507.00 705.00 L 502.00 711.00 L 505.00 713.00 L 508.00 710.00 L 511.00 710.00 L 513.00 712.00 L 515.00 708.00 L 518.00 708.00 L 519.00 710.00 L 517.00 710.00 L 517.00 712.00 L 532.00 712.00 L 539.00 706.00 Z" fill="rgb(73,194,202)" fill-rule="evenodd"/>
<path d="M 404.00 598.00 L 388.00 606.00 L 390.00 625.00 L 374.00 671.00 L 383.00 684.00 L 373.00 683.00 L 379.00 731.00 L 369.00 764.00 L 368.00 804.00 L 367.00 761.00 L 377.00 724.00 L 370.00 686.00 L 361.00 702.00 L 349.00 765.00 L 348.00 800.00 L 357.00 833.00 L 344.00 807.00 L 343.00 786.00 L 338.00 792.00 L 339.00 815.00 L 356.00 836.00 L 367.00 812.00 L 382.00 801.00 L 371.00 781.00 L 385.00 772.00 L 400.00 736.00 L 388.00 727.00 L 392.00 706.00 L 400.00 699.00 L 403.00 715.00 L 412.00 720.00 L 419.00 701.00 L 406.00 695.00 L 404.00 676.00 L 423.00 609.00 Z" fill="rgb(73,194,202)" fill-rule="evenodd"/>
<path d="M 594.00 446.00 L 577.00 463.00 L 579.00 467.00 L 568.00 489.00 L 560.00 492.00 L 564.00 493.00 L 560.00 503.00 L 545.00 512.00 L 550.00 535.00 L 547.00 521.00 L 544.00 522.00 L 544.00 544.00 L 524.00 591.00 L 525.00 595.00 L 531.00 591.00 L 527.00 599.00 L 522.00 599.00 L 511.00 623.00 L 499.00 676.00 L 519.00 661.00 L 541.00 589.00 L 537.00 590.00 L 535.00 602.00 L 529.00 603.00 L 547.00 544.00 L 552.00 543.00 L 569.00 493.00 L 586.00 465.00 L 581.00 462.00 L 587.00 460.00 Z" fill="rgb(73,194,202)" fill-rule="evenodd"/>
<path d="M 535.00 428.00 L 489.00 462.00 L 486.00 472.00 L 466.00 490.00 L 471.00 495.00 L 468.00 501.00 L 446.00 487.00 L 424.00 510.00 L 416.00 503.00 L 427.00 458.00 L 423.00 427.00 L 417.00 419.00 L 412.00 494.00 L 395.00 543.00 L 399.00 545.00 L 414.00 531.00 L 412.00 542.00 L 425.00 525.00 L 403.00 571.00 L 398.00 595.00 L 410.00 598.00 L 416.00 586.00 L 413.00 599.00 L 425.00 604.00 L 429.00 594.00 L 423.00 581.00 L 451.00 532.00 L 471.00 513.00 L 472.00 502.00 L 536.00 436.00 Z" fill="rgb(73,194,202)" fill-rule="evenodd"/>
<path d="M 664.00 385.00 L 662.00 383.00 L 652.00 391.00 L 634.00 401.00 L 628.00 407.00 L 628.00 410.00 L 632.00 411.00 L 630.00 414.00 L 624.00 417.00 L 623.00 416.00 L 626.00 412.00 L 623.00 412.00 L 621.00 414.00 L 624.00 417.00 L 611.00 429.00 L 610.00 427.00 L 615.00 422.00 L 614.00 421.00 L 619.00 417.00 L 614.00 416.00 L 612.00 419.00 L 611.00 418.00 L 605.00 424.00 L 603.00 431.00 L 605.00 433.00 L 610.00 428.00 L 611.00 434.00 L 633.00 413.00 L 638.00 411.00 L 636.00 410.00 L 633.00 412.00 L 632.00 410.00 L 651.00 397.00 L 657.00 391.00 L 664.00 388.00 Z" fill="rgb(73,194,202)" fill-rule="evenodd"/>
<path d="M 693.00 342.00 L 600.00 356.00 L 528.00 390.00 L 536.00 396.00 L 545.00 386.00 L 558.00 382.00 L 538.00 398.00 L 540.00 402.00 L 527.00 394.00 L 512.00 400.00 L 509.00 411.00 L 488.00 424.00 L 491.00 428.00 L 475.00 448.00 L 476.00 458.00 L 458.00 473.00 L 457.00 481.00 L 464.00 481.00 L 473.00 464.00 L 503.00 435.00 L 501.00 449.00 L 527.00 422.00 L 519.00 413.00 L 529.00 421.00 L 544.00 403.00 L 553.00 409.00 L 550.00 403.00 L 584.00 377.00 L 581.00 368.00 L 594.00 371.00 L 621.00 354.00 L 665.00 353.00 Z" fill="rgb(73,194,202)" fill-rule="evenodd"/>
<path d="M 680.00 277.00 L 673.00 286.00 L 669.00 296.00 L 671.00 300.00 L 675.00 302.00 L 674.00 305.00 L 676.00 307.00 L 675.00 312.00 L 673.00 308.00 L 670.00 308.00 L 668.00 310.00 L 670.00 312.00 L 668.00 314.00 L 671.00 322.00 L 675.00 320.00 L 679.00 316.00 L 678.00 314.00 L 680.00 312.00 L 685.00 311.00 L 688.00 313.00 L 699.00 314.00 L 707.00 321.00 L 711.00 321.00 L 712.00 319.00 L 709.00 314.00 L 702.00 308.00 L 699.00 310.00 L 698.00 306.00 L 692.00 306.00 L 693.00 302.00 L 683.00 290.00 Z" fill="rgb(73,194,202)" fill-rule="evenodd"/>
<path d="M 417.00 648.00 L 411.00 656.00 L 410.00 660.00 L 406.00 662.00 L 405.00 678.00 L 409.00 686.00 L 409.00 691.00 L 411.00 691.00 L 413.00 695.00 L 427.00 655.00 Z" fill="rgb(53,155,175)" fill-rule="evenodd"/>
<path d="M 537.00 553.00 L 529.00 565.00 L 525.00 568.00 L 523.00 575.00 L 515.00 590.00 L 515.00 593.00 L 503.00 622.00 L 505.00 624.00 L 508.00 622.00 L 513.00 607.00 L 515.00 605.00 L 517.00 607.00 L 522.00 602.00 L 520.00 600.00 L 516.00 604.00 L 515.00 602.00 L 520.00 591.00 L 525.00 588.00 L 527.00 581.00 L 537.00 563.00 L 539.00 557.00 Z" fill="rgb(53,155,175)" fill-rule="evenodd"/>
<path d="M 533.00 439.00 L 528.00 442.00 L 506.00 465.00 L 482.00 495.00 L 480.00 499.00 L 485.00 504.00 L 488.00 504.00 L 495.00 493.00 L 494.00 491.00 L 504.00 480.00 L 516.00 462.00 L 516.00 459.00 L 534.00 440.00 Z" fill="rgb(53,155,175)" fill-rule="evenodd"/>
<path d="M 531.00 426.00 L 527.00 423.00 L 518.00 432.00 L 519.00 433.00 L 517.00 435.00 L 516.00 434.00 L 501.00 450.00 L 498.00 447.00 L 502.00 439.00 L 501.00 438.00 L 469.00 470.00 L 470.00 472.00 L 465.00 482.00 L 459.00 483.00 L 458.00 485.00 L 465.00 490.00 L 465.00 485.00 L 470.00 483.00 L 473.00 478.00 L 476.00 479.00 L 480.00 477.00 L 488.00 468.00 L 486.00 465.00 L 487.00 460.00 L 489.00 461.00 L 492.00 458.00 L 499.00 456.00 L 504.00 449.00 L 506.00 449.00 Z" fill="rgb(53,155,175)" fill-rule="evenodd"/>
<path d="M 574.00 415.00 L 560.00 413.00 L 490.00 506.00 L 459.00 522.00 L 426.00 577.00 L 446.00 561.00 L 481.00 592.00 L 449.00 668.00 L 478.00 589.00 L 443.00 569.00 L 415.00 637.00 L 440.00 661.00 L 423.00 673.00 L 416.00 721.00 L 393.00 706.00 L 389.00 725.00 L 404.00 731.00 L 374.00 777.00 L 385.00 800.00 L 356.00 837.00 L 364.00 848.00 L 408.00 753.00 L 420.00 764.00 L 423.00 742.00 L 440.00 748.00 L 416.00 796.00 L 470.00 731.00 L 541.00 712.00 L 578.00 684.00 L 509.00 686.00 L 482.00 708.00 L 475.00 696.00 L 441.00 743.00 L 465.00 710.00 L 419.00 725.00 L 427.00 682.00 L 454.00 677.00 L 482.00 625.00 L 501.00 541.00 L 477.00 566.00 L 479.00 534.00 L 557.00 419.00 L 548.00 448.00 L 562.00 445.00 Z M 539.00 697.00 L 538.00 701.00 L 540.00 703.00 L 540.00 706.00 L 532.00 713.00 L 519.00 712.00 L 508.00 715.00 L 506.00 713.00 L 505.00 714.00 L 498.00 712.00 L 513.00 698.00 L 514.00 699.00 L 526.00 696.00 L 530.00 693.00 L 532.00 695.00 L 537.00 695.00 Z" fill="rgb(53,155,175)" fill-rule="evenodd"/>
<path d="M 428.00 381.00 L 420.00 408.00 L 426.00 438.00 L 431.00 441.00 L 426.00 448.00 L 428.00 460.00 L 417.00 499.00 L 423.00 508.00 L 429.00 504.00 L 437.00 489.00 L 440.00 491.00 L 446.00 486.00 L 452.00 488.00 L 456.00 495.00 L 469.00 499.00 L 455.00 486.00 L 455.00 475.00 L 470.00 460.00 L 476.00 443.00 L 490.00 428.00 L 485.00 427.00 L 484.00 423.00 L 480.00 425.00 L 468.00 441.00 L 465.00 453.00 L 457.00 461.00 L 452.00 459.00 L 449.00 463.00 L 451.00 465.00 L 446.00 467.00 L 443.00 474.00 L 435.00 477.00 L 433.00 467.00 L 437.00 465.00 L 439.00 457.00 L 436.00 455.00 L 438.00 450.00 Z" fill="rgb(53,155,175)" fill-rule="evenodd"/>
<path d="M 606.00 371.00 L 603.00 370.00 L 600.00 372.00 L 596.00 372.00 L 570.00 387.00 L 552.00 402.00 L 556.00 406.00 L 555.00 408.00 L 559.00 410.00 L 563.00 403.00 L 577.00 392.00 L 583.00 396.00 L 585.00 406.00 L 581.00 414.00 L 582.00 415.00 L 586.00 412.00 L 587.00 413.00 L 592.00 409.00 L 593.00 412.00 L 589.00 414.00 L 593.00 419.00 L 599.00 413.00 L 599.00 411.00 L 596.00 408.00 L 594.00 411.00 L 592.00 409.00 L 599.00 403.00 L 596.00 400.00 L 592.00 405.00 L 589.00 405.00 L 587.00 401.00 L 587.00 396.00 L 591.00 390.00 L 600.00 386.00 L 596.00 384.00 L 600.00 382.00 L 598.00 379.00 Z" fill="rgb(53,155,175)" fill-rule="evenodd"/>
<path d="M 608.00 368.00 L 664.00 359.00 L 709.00 339.00 L 708.00 347.00 L 715.00 346.00 L 719.00 357.00 L 736.00 361.00 L 737.00 366.00 L 743.00 361.00 L 762.00 365.00 L 809.00 337.00 L 780.00 330.00 L 793.00 336.00 L 784.00 338.00 L 765.00 330.00 L 770.00 337.00 L 759.00 340.00 L 741.00 334.00 L 746.00 329.00 L 741.00 327.00 L 732.00 334.00 L 727.00 327.00 L 752.00 323.00 L 727.00 325.00 L 720.00 307.00 L 689.00 294.00 L 713.00 321.00 L 683.00 313.00 L 680.00 319.00 L 685.00 332.00 L 673.00 321.00 L 675.00 337.00 L 699.00 337.00 L 709.00 329.00 L 713.00 330.00 L 681.00 350.00 L 633.00 356.00 Z" fill="rgb(53,155,175)" fill-rule="evenodd"/>
<path d="M 328.00 747.00 L 329.00 797.00 L 346.00 844.00 L 344.00 890.00 L 355.00 908.00 L 367.00 910.00 L 385.00 893.00 L 420.00 830.00 L 379.00 896.00 L 365.00 907.00 L 357.00 906.00 L 354.00 900.00 L 371.00 893.00 L 392.00 850.00 L 373.00 888.00 L 362.00 897.00 L 349.00 893.00 L 350.00 840.00 L 356.00 844.00 L 367.00 841.00 L 352.00 838.00 L 336.00 812.00 Z" fill="rgb(26,116,142)" fill-rule="evenodd"/>
<path d="M 435.00 743.00 L 430.00 746.00 L 427.00 745.00 L 429.00 742.00 L 428.00 741.00 L 422.00 744.00 L 421.00 750.00 L 423.00 752.00 L 422.00 756.00 L 424.00 761.00 L 422.00 764.00 L 416.00 764.00 L 411.00 768.00 L 407.00 785.00 L 402.00 794.00 L 398.00 797.00 L 397.00 803.00 L 394.00 808.00 L 390.00 811.00 L 389.00 810.00 L 376.00 823.00 L 381.00 830.00 L 424.00 784.00 L 422.00 781.00 L 424.00 779.00 L 423.00 778.00 L 420.00 781.00 L 415.00 774.00 L 417.00 771.00 L 419.00 772.00 L 422.00 769.00 L 422.00 766.00 L 438.00 751.00 L 439.00 748.00 Z" fill="rgb(26,116,142)" fill-rule="evenodd"/>
<path d="M 555.00 687.00 L 539.00 687.00 L 537.00 685.00 L 538.00 682.00 L 536.00 680.00 L 520.00 676.00 L 508.00 683.00 L 499.00 692.00 L 497.00 691.00 L 489.00 697.00 L 482.00 699.00 L 485.00 701.00 L 481.00 706.00 L 482.00 707.00 L 487.00 705.00 L 496.00 697.00 L 507.00 695.00 L 508.00 691.00 L 506.00 688.00 L 509.00 685.00 L 518.00 685.00 L 524.00 688.00 L 529.00 688.00 L 533.00 686.00 L 539.00 690.00 L 549.00 690.00 Z" fill="rgb(26,116,142)" fill-rule="evenodd"/>
<path d="M 435.00 345.00 L 414.00 373.00 L 406.00 412.00 L 420.00 368.00 L 434.00 348.00 L 439.00 352.00 L 439.00 376.00 L 435.00 357.00 L 429.00 386.00 L 441.00 457.00 L 435.00 468.00 L 438.00 477.00 L 449.00 460.00 L 457.00 460.00 L 464.00 453.00 L 464.00 445.00 L 479.00 428.00 L 460.00 427.00 L 441.00 414.00 L 444.00 411.00 L 441.00 386.00 L 450.00 408.00 L 459.00 418.00 L 471.00 420.00 L 478.00 414.00 L 465.00 418.00 L 454.00 409.00 L 442.00 373.00 L 440.00 347.00 Z" fill="rgb(26,116,142)" fill-rule="evenodd"/>
<path d="M 709.00 340.00 L 590.00 392.00 L 604.00 402.00 L 511.00 516.00 L 559.00 435.00 L 543.00 441.00 L 493.00 511.00 L 477.00 564.00 L 503.00 538.00 L 483.00 625.00 L 455.00 677.00 L 427.00 685.00 L 421.00 721.00 L 446.00 706.00 L 455.00 721.00 L 481.00 681.00 L 487.00 695.00 L 522.00 668.00 L 595.00 676.00 L 545.00 725.00 L 469.00 742.00 L 456.00 779.00 L 478.00 743.00 L 545.00 729.00 L 592.00 690.00 L 594.00 665.00 L 523.00 663.00 L 535.00 627.00 L 498.00 682.00 L 482.00 647.00 L 523.00 540.00 L 538.00 538.00 L 537.00 494.00 L 657.00 368.00 L 643.00 394.00 L 683.00 363.00 L 715.00 364.00 Z" fill="rgb(26,116,142)" fill-rule="evenodd"/>
<path d="M 826.00 320.00 L 789.00 326.00 L 754.00 313.00 L 725.00 314.00 L 724.00 320.00 L 749.00 316.00 L 781.00 330.00 L 819.00 322.00 L 819.00 336.00 L 786.00 366.00 L 752.00 376.00 L 694.00 371.00 L 656.00 397.00 L 588.00 478.00 L 556.00 567.00 L 596.00 472.00 L 644.00 414.00 L 694.00 376.00 L 753.00 379.00 L 788.00 368.00 L 821.00 341.00 Z" fill="rgb(26,116,142)" fill-rule="evenodd"/>
<path d="M 674.00 339.00 L 665.00 320.00 L 663.00 308.00 L 662.00 317.00 L 664.00 328.00 L 668.00 336.00 L 667.00 338.00 L 635.00 339.00 L 633.00 341.00 L 628.00 340.00 L 608.00 343.00 L 574.00 353.00 L 567.00 357.00 L 568.00 358.00 L 587.00 351.00 L 632.00 342.00 L 634.00 340.00 L 651.00 341.00 L 654.00 339.00 L 659.00 341.00 L 673.00 341.00 Z" fill="rgb(26,116,142)" fill-rule="evenodd"/>
<path d="M 827.00 304.00 L 674.00 256.00 L 622.00 305.00 L 505.00 359.00 L 476.00 362.00 L 440.00 336.00 L 397.00 353.00 L 382.00 386.00 L 372.00 488.00 L 328.00 588.00 L 298.00 735.00 L 318.00 878.00 L 342.00 921.00 L 366.00 928.00 L 397.00 915.00 L 499.00 775.00 L 560.00 752.00 L 598.00 721.00 L 612.00 671.00 L 573.00 617.00 L 619.00 492.00 L 681.00 422.00 L 818.00 381.00 L 841.00 340.00 Z" fill="none" stroke="rgb(20,110,140)" stroke-width="3" stroke-linejoin="round" stroke-linecap="round"/>
</svg>